<svg xmlns="http://www.w3.org/2000/svg" xmlns:xlink="http://www.w3.org/1999/xlink" width="195px" height="36px" viewBox="0 0 195 36"><title>logo</title><g id="Page-1" stroke="none" stroke-width="1" fill="none" fill-rule="evenodd"><g id="Home-1---Big-Construction-Company-1" transform="translate(-93.000000, -19.000000)"><g id="logo" transform="translate(94.000000, 20.000000)"><g id="Path" stroke="#000000" stroke-linecap="round" stroke-linejoin="round" stroke-width="1.31072"><polygon points="25.9477341 0 25.9477341 34 0 34 0 11.6665445"></polygon><polyline points="51.8947368 34 51.8947368 11.6665445 25.9477341 0"></polyline><polyline points="46.6800307 34 46.6800307 20.6434591 31.1624402 13.6665445 31.1624402 34"></polyline></g><path d="M65.6,29 L65.6,25.736 L67.376,24.136 L70.448,29 L73.296,29 L69.024,22.488 L73.216,18.024 L70.272,18.024 L65.6,23.016 L65.6,18.024 L63.216,18.024 L63.216,29 L65.6,29 Z M79.936,29.192 C81.12,29.192 82.1306667,28.984 82.968,28.568 C83.8053333,28.152 84.448,27.5226667 84.896,26.68 C85.344,25.8373333 85.568,24.7813333 85.568,23.512 C85.568,22.2213333 85.344,21.1573333 84.896,20.32 C84.448,19.4826667 83.8053333,18.8586667 82.968,18.448 C82.1306667,18.0373333 81.12,17.832 79.936,17.832 C78.7733333,17.832 77.7706667,18.0373333 76.928,18.448 C76.0853333,18.8586667 75.44,19.4826667 74.992,20.32 C74.544,21.1573333 74.32,22.2213333 74.32,23.512 C74.32,24.7813333 74.544,25.8373333 74.992,26.68 C75.44,27.5226667 76.0853333,28.152 76.928,28.568 C77.7706667,28.984 78.7733333,29.192 79.936,29.192 Z M79.936,27.24 C79.424,27.24 78.9706667,27.1653333 78.576,27.016 C78.1813333,26.8666667 77.8506667,26.6426667 77.584,26.344 C77.3173333,26.0453333 77.1173333,25.68 76.984,25.248 C76.8506667,24.816 76.784,24.3226667 76.784,23.768 L76.784,23.768 L76.784,23.272 C76.784,22.7066667 76.8506667,22.2053333 76.984,21.768 C77.1173333,21.3306667 77.3173333,20.9653333 77.584,20.672 C77.8506667,20.3786667 78.1813333,20.1573333 78.576,20.008 C78.9706667,19.8586667 79.424,19.784 79.936,19.784 C80.4586667,19.784 80.9173333,19.8586667 81.312,20.008 C81.7066667,20.1573333 82.0373333,20.3786667 82.304,20.672 C82.5706667,20.9653333 82.7733333,21.3306667 82.912,21.768 C83.0506667,22.2053333 83.12,22.7066667 83.12,23.272 L83.12,23.272 L83.12,23.768 C83.12,24.3226667 83.0506667,24.816 82.912,25.248 C82.7733333,25.68 82.5706667,26.0453333 82.304,26.344 C82.0373333,26.6426667 81.7066667,26.8666667 81.312,27.016 C80.9173333,27.1653333 80.4586667,27.24 79.936,27.24 Z M89.76,29 L89.76,22.024 L89.84,22.024 C89.8933333,22.12 89.9786667,22.2586667 90.096,22.44 C90.2133333,22.6213333 90.3253333,22.7866667 90.432,22.936 L90.432,22.936 L94.944,29 L97.136,29 L97.136,18.024 L94.88,18.024 L94.88,24.952 L94.8,24.952 C94.768,24.8773333 94.7093333,24.776 94.624,24.648 C94.5386667,24.52 94.448,24.3893333 94.352,24.256 C94.256,24.1226667 94.176,24.0186667 94.112,23.944 L94.112,23.944 L89.696,18.024 L87.504,18.024 L87.504,29 L89.76,29 Z M103.84,29.192 C104.746667,29.192 105.552,29.0746667 106.256,28.84 C106.96,28.6053333 107.514667,28.232 107.92,27.72 C108.325333,27.208 108.528,26.5306667 108.528,25.688 C108.528,25.1973333 108.432,24.776 108.24,24.424 C108.048,24.072 107.792,23.776 107.472,23.536 C107.152,23.296 106.789333,23.096 106.384,22.936 C105.978667,22.776 105.562667,22.6373333 105.136,22.52 C104.709333,22.4026667 104.293333,22.296 103.888,22.2 C103.482667,22.104 103.117333,21.9946667 102.792,21.872 C102.466667,21.7493333 102.210667,21.6053333 102.024,21.44 C101.837333,21.2746667 101.744,21.064 101.744,20.808 C101.744,20.584 101.826667,20.3893333 101.992,20.224 C102.157333,20.0586667 102.397333,19.9333333 102.712,19.848 C103.026667,19.7626667 103.408,19.72 103.856,19.72 C104.272,19.72 104.634667,19.7786667 104.944,19.896 C105.253333,20.0133333 105.493333,20.1733333 105.664,20.376 C105.834667,20.5786667 105.92,20.824 105.92,21.112 L105.92,21.112 L105.92,21.24 L108.24,21.24 L108.24,21.048 C108.24,20.4933333 108.125333,20.0133333 107.896,19.608 C107.666667,19.2026667 107.349333,18.8666667 106.944,18.6 C106.538667,18.3333333 106.069333,18.1386667 105.536,18.016 C105.002667,17.8933333 104.437333,17.832 103.84,17.832 C103.2,17.832 102.608,17.8933333 102.064,18.016 C101.52,18.1386667 101.04,18.328 100.624,18.584 C100.208,18.84 99.8853333,19.1653333 99.656,19.56 C99.4266667,19.9546667 99.312,20.424 99.312,20.968 C99.312,21.48 99.408,21.9173333 99.6,22.28 C99.792,22.6426667 100.048,22.9413333 100.368,23.176 C100.688,23.4106667 101.050667,23.6106667 101.456,23.776 C101.861333,23.9413333 102.277333,24.08 102.704,24.192 C103.130667,24.304 103.546667,24.4133333 103.952,24.52 C104.357333,24.6266667 104.722667,24.744 105.048,24.872 C105.373333,25 105.629333,25.1546667 105.816,25.336 C106.002667,25.5173333 106.096,25.752 106.096,26.04 C106.096,26.2 106.066667,26.344 106.008,26.472 C105.949333,26.6 105.858667,26.712 105.736,26.808 C105.613333,26.904 105.458667,26.9866667 105.272,27.056 C105.085333,27.1253333 104.872,27.1786667 104.632,27.216 C104.392,27.2533333 104.117333,27.272 103.808,27.272 C103.328,27.272 102.906667,27.2133333 102.544,27.096 C102.181333,26.9786667 101.906667,26.8026667 101.72,26.568 C101.533333,26.3333333 101.44,26.0453333 101.44,25.704 L101.44,25.704 L101.44,25.56 C101.44,25.5066667 101.445333,25.464 101.456,25.432 L101.456,25.432 L99.088,25.432 C99.0773333,25.464 99.072,25.5093333 99.072,25.568 L99.072,25.568 L99.072,25.736 C99.072,26.3546667 99.1973333,26.88 99.448,27.312 C99.6986667,27.744 100.045333,28.1013333 100.488,28.384 C100.930667,28.6666667 101.44,28.872 102.016,29 C102.592,29.128 103.2,29.192 103.84,29.192 Z M115.536,29 L115.536,20.024 L119.072,20.024 L119.072,18.024 L109.616,18.024 L109.616,20.024 L113.136,20.024 L113.136,29 L115.536,29 Z M123.072,29 L123.072,25 L126.128,25 L128.064,29 L130.704,29 L128.464,24.6 C129.072,24.312 129.536,23.8933333 129.856,23.344 C130.176,22.7946667 130.336,22.1626667 130.336,21.448 C130.336,20.776 130.202667,20.1813333 129.936,19.664 C129.669333,19.1466667 129.266667,18.744 128.728,18.456 C128.189333,18.168 127.514667,18.024 126.704,18.024 L126.704,18.024 L120.688,18.024 L120.688,29 L123.072,29 Z M126.384,23.112 L123.072,23.112 L123.072,19.96 L126.384,19.96 C126.714667,19.96 126.992,20.0186667 127.216,20.136 C127.44,20.2533333 127.610667,20.4266667 127.728,20.656 C127.845333,20.8853333 127.904,21.16 127.904,21.48 C127.904,21.9813333 127.770667,22.3786667 127.504,22.672 C127.237333,22.9653333 126.864,23.112 126.384,23.112 L126.384,23.112 Z M137.12,29.192 C138.133333,29.192 139,29.032 139.72,28.712 C140.44,28.392 140.992,27.9093333 141.376,27.264 C141.76,26.6186667 141.952,25.816 141.952,24.856 L141.952,24.856 L141.952,18.024 L139.552,18.024 L139.552,24.792 C139.552,25.5813333 139.341333,26.1866667 138.92,26.608 C138.498667,27.0293333 137.898667,27.24 137.12,27.24 C136.341333,27.24 135.744,27.0293333 135.328,26.608 C134.912,26.1866667 134.704,25.5813333 134.704,24.792 L134.704,24.792 L134.704,18.024 L132.304,18.024 L132.304,24.856 C132.304,25.816 132.496,26.6186667 132.88,27.264 C133.264,27.9093333 133.816,28.392 134.536,28.712 C135.256,29.032 136.117333,29.192 137.12,29.192 Z M146.72,29 L146.72,25.736 L148.496,24.136 L151.568,29 L154.416,29 L150.144,22.488 L154.336,18.024 L151.392,18.024 L146.72,23.016 L146.72,18.024 L144.336,18.024 L144.336,29 L146.72,29 Z M161.04,29 L161.04,20.024 L164.576,20.024 L164.576,18.024 L155.12,18.024 L155.12,20.024 L158.64,20.024 L158.64,29 L161.04,29 Z M168.576,29 L168.576,18.024 L166.192,18.024 L166.192,29 L168.576,29 Z M176.128,29.192 C177.312,29.192 178.322667,28.984 179.16,28.568 C179.997333,28.152 180.64,27.5226667 181.088,26.68 C181.536,25.8373333 181.76,24.7813333 181.76,23.512 C181.76,22.2213333 181.536,21.1573333 181.088,20.32 C180.64,19.4826667 179.997333,18.8586667 179.16,18.448 C178.322667,18.0373333 177.312,17.832 176.128,17.832 C174.965333,17.832 173.962667,18.0373333 173.12,18.448 C172.277333,18.8586667 171.632,19.4826667 171.184,20.32 C170.736,21.1573333 170.512,22.2213333 170.512,23.512 C170.512,24.7813333 170.736,25.8373333 171.184,26.68 C171.632,27.5226667 172.277333,28.152 173.12,28.568 C173.962667,28.984 174.965333,29.192 176.128,29.192 Z M176.128,27.24 C175.616,27.24 175.162667,27.1653333 174.768,27.016 C174.373333,26.8666667 174.042667,26.6426667 173.776,26.344 C173.509333,26.0453333 173.309333,25.68 173.176,25.248 C173.042667,24.816 172.976,24.3226667 172.976,23.768 L172.976,23.768 L172.976,23.272 C172.976,22.7066667 173.042667,22.2053333 173.176,21.768 C173.309333,21.3306667 173.509333,20.9653333 173.776,20.672 C174.042667,20.3786667 174.373333,20.1573333 174.768,20.008 C175.162667,19.8586667 175.616,19.784 176.128,19.784 C176.650667,19.784 177.109333,19.8586667 177.504,20.008 C177.898667,20.1573333 178.229333,20.3786667 178.496,20.672 C178.762667,20.9653333 178.965333,21.3306667 179.104,21.768 C179.242667,22.2053333 179.312,22.7066667 179.312,23.272 L179.312,23.272 L179.312,23.768 C179.312,24.3226667 179.242667,24.816 179.104,25.248 C178.965333,25.68 178.762667,26.0453333 178.496,26.344 C178.229333,26.6426667 177.898667,26.8666667 177.504,27.016 C177.109333,27.1653333 176.650667,27.24 176.128,27.24 Z M185.952,29 L185.952,22.024 L186.032,22.024 C186.085333,22.12 186.170667,22.2586667 186.288,22.44 C186.405333,22.6213333 186.517333,22.7866667 186.624,22.936 L186.624,22.936 L191.136,29 L193.328,29 L193.328,18.024 L191.072,18.024 L191.072,24.952 L190.992,24.952 C190.96,24.8773333 190.901333,24.776 190.816,24.648 C190.730667,24.52 190.64,24.3893333 190.544,24.256 C190.448,24.1226667 190.368,24.0186667 190.304,23.944 L190.304,23.944 L185.888,18.024 L183.696,18.024 L183.696,29 L185.952,29 Z" id="KONSTRUKTION" fill="#000000" fill-rule="nonzero"></path></g></g></g></svg>